<svg width="321" height="96" viewBox="0 0 321 96" fill="none" xmlns="http://www.w3.org/2000/svg">
    <path
        d="M79.9864 27.7911C99.2668 27.7911 109.689 42.1212 109.689 59.8383V93.4487H96.7916V61.9227C96.7916 50.3284 91.0596 40.1671 79.0745 40.1671C67.4802 40.1671 61.6179 49.9376 61.6179 61.6621V93.4487H48.7209V61.6621C48.7209 49.9376 42.8586 40.1671 31.0038 40.1671C19.0187 40.1671 13.6775 50.3284 13.6775 61.9227V93.4487H0.780449V59.9686C0.780449 42.1212 10.9417 27.7911 30.0919 27.7911C42.8586 27.7911 52.108 34.3048 55.3648 44.2055C58.8822 34.3048 67.871 27.7911 79.9864 27.7911ZM147.799 95.012C128.518 95.012 113.667 79.9003 113.667 61.4016C113.667 43.0331 128.648 28.0517 147.799 28.0517C167.079 28.0517 181.67 43.1634 181.67 61.4016C181.67 79.9003 166.949 95.012 147.799 95.012ZM147.799 82.7663C159.653 82.7663 168.773 73.1261 168.773 61.5318C168.773 49.8073 159.653 40.1671 147.799 40.1671C135.813 40.1671 126.564 49.8073 126.564 61.5318C126.564 73.1261 135.813 82.7663 147.799 82.7663ZM219.652 95.012C200.372 95.012 185.521 79.9003 185.521 61.4016C185.521 43.0331 200.502 28.0517 219.652 28.0517C238.933 28.0517 253.523 43.1634 253.523 61.4016C253.523 79.9003 238.802 95.012 219.652 95.012ZM219.652 82.7663C231.507 82.7663 240.626 73.1261 240.626 61.5318C240.626 49.8073 231.507 40.1671 219.652 40.1671C207.667 40.1671 198.418 49.8073 198.418 61.5318C198.418 73.1261 207.667 82.7663 219.652 82.7663ZM257.505 0.303546H270.402V93.4487H257.505V0.303546ZM306.393 95.012C287.894 95.012 274.346 79.9003 274.346 61.4016C274.346 43.1634 288.936 28.0517 308.347 28.0517C327.627 28.0517 342.348 42.3817 342.348 61.4016V93.4487H330.102V82.2453C325.282 90.0616 316.815 95.012 306.393 95.012ZM308.347 82.7663C320.332 82.7663 329.451 73.1261 329.451 61.5318C329.451 49.8073 320.332 40.1671 308.347 40.1671C296.492 40.1671 287.243 49.8073 287.243 61.5318C287.243 73.1261 296.492 82.7663 308.347 82.7663Z"
        fill="url(#paint0_linear_3982_228)" fill-opacity="0.07" />
    <defs>
        <linearGradient id="paint0_linear_3982_228" x1="-8.46893" y1="49.9487" x2="352.531"
            y2="49.9487" gradientUnits="userSpaceOnUse">
            <stop stopColor="white" stop-opacity="0" />
            <stop offset="1" stopColor="white" />
        </linearGradient>
    </defs>
</svg>
    